<svg width="28" height="24" viewBox="0 0 28 24" fill="none" xmlns="http://www.w3.org/2000/svg">
<path d="M20.0497 6.546L23.1285 4.187C23.2925 4.062 23.4955 4 23.6985 4C24.178 4 24.5588 4.34 24.5588 4.75C24.5588 4.957 24.4602 5.164 24.2675 5.312L5.34095 19.813C5.17807 19.939 4.97504 20 4.77201 20C4.29598 20 3.91171 19.666 3.91171 19.25C3.91171 19.043 4.01036 18.836 4.20192 18.688L6.99846 16.545C5.37651 15.413 3.98512 13.993 2.92983 12.517C2.81971 12.358 2.76465 12.179 2.76465 12C2.76465 11.821 2.82085 11.642 2.93097 11.483C5.35242 8.093 9.55526 5 14.233 5C16.3149 5 18.289 5.593 20.0497 6.546ZM22.7098 8.376C23.8178 9.319 24.7779 10.39 25.5476 11.493C25.6531 11.649 25.7059 11.825 25.7059 12C25.7059 12.175 25.6531 12.351 25.5476 12.507C23.1755 15.91 18.9853 19 14.233 19C12.7452 19 11.3045 18.687 9.95559 18.151L11.386 17.055C12.2979 17.34 13.2511 17.5 14.233 17.5C18.2661 17.5 21.7761 14.878 23.8832 12C23.2007 11.068 22.3714 10.162 21.4228 9.363L22.7098 8.376ZM18.7708 11.395C18.8052 11.592 18.8235 11.794 18.8235 12C18.8235 14.208 16.768 16 14.2353 16C13.7948 16 13.3681 15.946 12.9655 15.844L14.7778 14.455C15.8045 14.284 16.6372 13.634 16.9584 12.784L18.7708 11.395ZM18.7042 7.577C17.3312 6.907 15.8228 6.5 14.233 6.5C10.2584 6.5 6.73922 9.132 4.59307 12C5.57151 13.308 6.83557 14.567 8.29923 15.549L10.2814 14.03C9.87873 13.435 9.64703 12.741 9.64703 12C9.64703 9.792 11.7026 8 14.2353 8C15.2963 8 16.2736 8.315 17.0513 8.843L18.7042 7.577ZM15.7219 9.862C15.2883 9.632 14.779 9.5 14.2353 9.5C12.6523 9.5 11.3676 10.62 11.3676 12C11.3676 12.36 11.4548 12.701 11.6119 13.011L15.7219 9.862Z" fill="#777777"/>
</svg>
