<svg width="28" height="24" viewBox="0 0 28 24" fill="none" xmlns="http://www.w3.org/2000/svg">
<path d="M14.2329 5C9.55524 5 5.35241 8.093 2.93097 11.483C2.82085 11.642 2.76465 11.821 2.76465 12C2.76465 12.179 2.81971 12.358 2.92982 12.517C5.35241 15.907 9.55524 19 14.2329 19C18.9852 19 23.1754 15.91 25.5475 12.507C25.6531 12.351 25.7058 12.175 25.7058 12C25.7058 11.825 25.6531 11.649 25.5475 11.493C23.1754 8.09 18.9852 5 14.2329 5ZM23.8831 12C21.776 14.878 18.266 17.5 14.2329 17.5C10.2584 17.5 6.74035 14.868 4.59306 12C6.73921 9.132 10.2584 6.5 14.2329 6.5C18.2683 6.5 21.7794 9.124 23.8831 12ZM14.2352 8C16.7679 8 18.8235 9.792 18.8235 12C18.8235 14.208 16.7679 16 14.2352 16C11.7025 16 9.647 14.208 9.647 12C9.647 9.792 11.7025 8 14.2352 8ZM14.2352 9.5C12.6523 9.5 11.3676 10.62 11.3676 12C11.3676 13.38 12.6523 14.5 14.2352 14.5C15.8182 14.5 17.1029 13.38 17.1029 12C17.1029 10.62 15.8182 9.5 14.2352 9.5Z" fill="#777777"/>
</svg>
