<svg width="24" height="24" viewBox="0 0 24 24" fill="none" xmlns="http://www.w3.org/2000/svg">
<path d="M4.48098 15.6591C3.14698 19.5751 3.00098 19.8911 3.00098 20.2461C3.00098 20.7741 3.46098 20.9951 3.74998 20.9951C4.10198 20.9951 4.41798 20.8581 8.32398 19.5031L4.48098 15.6591ZM5.54098 14.5981L9.38698 18.4441L20.708 7.13312C20.903 6.93812 21.001 6.68312 21.001 6.42612C21.001 6.17112 20.903 5.91612 20.708 5.72012C20.016 5.02912 18.966 3.98012 18.273 3.28812C18.078 3.09312 17.822 2.99512 17.566 2.99512C17.312 2.99512 17.056 3.09312 16.86 3.28812L5.54098 14.5981Z" fill="#6D6D6D"/>
</svg>
