<svg width="18" height="18" viewBox="0 0 18 18" fill="none" xmlns="http://www.w3.org/2000/svg">
<g clip-path="url(#clip0_113_1204)">
<path d="M4.64141 6.53888C4.97066 6.20963 5.33591 5.93812 5.72441 5.72362C7.88966 4.53038 10.6662 5.16488 12.0582 7.27538L10.3737 8.95913C9.89067 7.85738 8.69141 7.23037 7.49816 7.49738C7.04891 7.59788 6.62216 7.82213 6.27341 8.17088L3.04541 11.4004C2.06516 12.3806 2.06516 13.9751 3.04541 14.9554C4.02566 15.9356 5.62016 15.9356 6.60041 14.9554L7.59566 13.9601C8.50091 14.3194 9.47141 14.4626 10.4299 14.3914L8.23316 16.5881C6.34991 18.4714 3.29666 18.4714 1.41341 16.5881C-0.469836 14.7049 -0.469836 11.6516 1.41341 9.76838L4.64141 6.53888ZM9.76841 1.41188L7.57166 3.60862C8.52941 3.53662 9.50066 3.68062 10.4059 4.03912L11.4004 3.04462C12.3807 2.06437 13.9752 2.06437 14.9554 3.04462C15.9357 4.02487 15.9357 5.61938 14.9554 6.59963L11.7267 9.82837C10.7434 10.8116 9.14666 10.8034 8.17167 9.82837C7.94441 9.60112 7.74866 9.31838 7.62641 9.04012L5.94191 10.7239C6.11891 10.9924 6.30266 11.2241 6.53891 11.4604C7.14791 12.0694 7.92341 12.5231 8.81591 12.7384C9.97241 13.0166 11.2114 12.8629 12.2757 12.2756C12.6642 12.0611 13.0294 11.7896 13.3587 11.4604L16.5867 8.23162C18.4707 6.34838 18.4707 3.29513 16.5874 1.41188C14.7042 -0.470625 11.6517 -0.470625 9.76841 1.41188Z" fill="#6D6D6D"/>
</g>
<defs>
<clipPath id="clip0_113_1204">
<rect width="18" height="18" fill="white"/>
</clipPath>
</defs>
</svg>
