<svg width="18" height="18" viewBox="0 0 18 18" fill="none" xmlns="http://www.w3.org/2000/svg">
<path fill-rule="evenodd" clip-rule="evenodd" d="M14.25 18H3.75C2.922 18 2.25 17.328 2.25 16.5V4.5H15.75V16.5C15.75 17.328 15.078 18 14.25 18ZM7.5 7.5C7.5 7.086 7.164 6.75 6.75 6.75C6.336 6.75 6 7.086 6 7.5V14.25C6 14.664 6.336 15 6.75 15C7.164 15 7.5 14.664 7.5 14.25V7.5ZM12 7.5C12 7.086 11.664 6.75 11.25 6.75C10.836 6.75 10.5 7.086 10.5 7.5V14.25C10.5 14.664 10.836 15 11.25 15C11.664 15 12 14.664 12 14.25V7.5ZM16.5 3.75H1.5V2.25H6V1.125C6 0.50475 6.50475 0 7.125 0H10.875C11.4937 0 12 0.50325 12 1.125V2.25H16.5V3.75ZM7.5 2.25H10.5V1.5H7.5V2.25Z" fill="#6D6D6D"/>
</svg>
