<svg width="24" height="25" viewBox="0 0 24 25" fill="none" xmlns="http://www.w3.org/2000/svg">
<mask id="mask0_156_31" style="mask-type:alpha" maskUnits="userSpaceOnUse" x="2" y="3" width="20" height="18">
<path fill-rule="evenodd" clip-rule="evenodd" d="M3.97352 5.39442C1.85979 7.50816 1.83083 10.9171 3.88671 13.0664C3.89614 13.0771 3.90594 13.0875 3.91612 13.0977L3.95278 13.1343L3.97202 13.1537L3.99439 13.176L5.26805 14.4496L5.27564 14.4573L11.5256 20.7073C11.666 20.8477 11.8513 20.916 12.0353 20.9122C12.2096 20.9085 12.3827 20.8402 12.5157 20.7073L18.7657 14.4573L18.773 14.4499L20.0556 13.1673L20.0668 13.1561L20.0686 13.1544L20.0797 13.1431L20.3246 12.8983C20.3736 12.8493 20.4139 12.7949 20.4455 12.737C22.2023 10.5811 22.0765 7.40317 20.0677 5.39442C17.9246 3.25134 14.45 3.25134 12.3069 5.39442C12.2069 5.49448 12.1114 5.59751 12.0206 5.70325C11.9298 5.59751 11.8344 5.49448 11.7343 5.39442C9.59123 3.25134 6.1166 3.25134 3.97352 5.39442Z" fill="#363636"/>
</mask>
<g mask="url(#mask0_156_31)">
<path d="M0 0.253906H24V24.2539H0V0.253906Z" fill="#F95E5E"/>
</g>
</svg>
