<svg width="24" height="24" viewBox="0 0 24 24" fill="none" xmlns="http://www.w3.org/2000/svg">
<mask id="mask0_98_1159" style="mask-type:alpha" maskUnits="userSpaceOnUse" x="2" y="3" width="20" height="18">
<path fill-rule="evenodd" clip-rule="evenodd" d="M3.97352 5.14051C1.85979 7.25425 1.83083 10.6631 3.88671 12.8125C3.89614 12.8232 3.90594 12.8336 3.91612 12.8438L3.95278 12.8804L3.97202 12.8998L3.99439 12.922L5.26805 14.1957L5.27564 14.2034L11.5256 20.4534C11.666 20.5938 11.8513 20.6621 12.0353 20.6582C12.2096 20.6546 12.3827 20.5863 12.5157 20.4534L18.7657 14.2034L18.773 14.1959L20.0556 12.9133L20.0668 12.9022L20.0686 12.9004L20.0797 12.8892L20.3246 12.6443C20.3736 12.5953 20.4139 12.5409 20.4455 12.4831C22.2023 10.3272 22.0765 7.14926 20.0677 5.14051C17.9246 2.99743 14.45 2.99743 12.3069 5.14052C12.2069 5.24057 12.1114 5.34361 12.0206 5.44934C11.9298 5.34361 11.8344 5.24057 11.7343 5.14052C9.59123 2.99743 6.1166 2.99743 3.97352 5.14051Z" fill="#363636"/>
</mask>
<g mask="url(#mask0_98_1159)">
<path d="M0 0H24V24H0V0Z" fill="#6D6D6D"/>
</g>
</svg>
